<svg preserveAspectRatio="none" overflow="visible" style="display: block;" width="16.2" height="15.1875" viewBox="0 0 16.2 15.1875" fill="none" xmlns="http://www.w3.org/2000/svg">
<g id="Container">
<path id="Icon" d="M4.8 10.7063L7.2 9.28125L9.61875 10.7063L8.98125 8.00625L11.0625 6.225L8.30625 5.98125L7.2 3.4125L6.09375 5.98125L3.3375 6.225L5.4375 8.00625L4.8 10.7063V10.7063M2.75625 13.5L3.9375 8.5125L0 5.15625L5.175 4.70625L7.2 0L9.225 4.725L14.4 5.15625L10.4625 8.5125L11.6438 13.5L7.2 10.8562L2.75625 13.5V13.5M7.2 7.25625V7.25625V7.25625V7.25625V7.25625V7.25625V7.25625V7.25625V7.25625V7.25625V7.25625V7.25625" fill="#F59E0B"/>
</g>
</svg>
